<?xml version="1.0" encoding="utf-8"?>
<!-- Generator: Adobe Illustrator 27.0.0, SVG Export Plug-In . SVG Version: 6.00 Build 0)  -->
<svg version="1.1" id="Layer_1" xmlns="http://www.w3.org/2000/svg" xmlns:xlink="http://www.w3.org/1999/xlink" x="0px" y="0px"
	 viewBox="0 0 24 24" style="enable-background:new 0 0 24 24;" xml:space="preserve">
<style type="text/css">
	.st0{fill:#38A2F2;}
	.st1{fill:#83C7FF;}
	.st2{fill:#FFEBEE;}
	.st3{font-family:'Swiss721BT-Black';}
	.st4{font-size:5.2795px;}
</style>
<path class="st0" d="M16.5,22h-9c-1.7,0-3-1.3-3-3V5c0-1.7,1.3-3,3-3h6.6c0.3,0,0.5,0.1,0.7,0.3l4.4,4.4c0.2,0.2,0.3,0.4,0.3,0.7V19
	C19.5,20.7,18.2,22,16.5,22z"/>
<path class="st1" d="M18.8,7.7h-3.6c-0.8,0-1.5-0.7-1.5-1.5V2.6c0-0.3,0.2-0.6,0.5-0.6c0.1,0,0.3,0.1,0.4,0.2l4.6,4.6
	c0.2,0.2,0.2,0.6,0,0.8C19.1,7.7,18.9,7.7,18.8,7.7z"/>
<text transform="matrix(1 0 0 1 6.5 18.3672)" class="st2 st3 st4">JPG</text>
</svg>
