<?xml version="1.0" encoding="UTF-8"?>
<svg id="_Слой_2" data-name="Слой 2" xmlns="http://www.w3.org/2000/svg" viewBox="0 0 1001.87 256.33">
  <defs>
    <style>
      .cls-1 {
        fill: #37375b;
      }

      .cls-2 {
        fill: #40405e;
      }

      .cls-3 {
        fill: #de2229;
      }

      .cls-4 {
        fill: #404060;
      }

      .cls-5 {
        fill: #3e3e5e;
      }

      .cls-6 {
        fill: #3f3e5e;
      }

      .cls-7 {
        fill: #dd232a;
      }

      .cls-8 {
        fill: #38385c;
      }

      .cls-9 {
        fill: #dd2329;
      }

      .cls-10 {
        fill: #39395d;
      }

      .cls-11 {
        fill: #3d3d5d;
      }

      .cls-12 {
        fill: #3f3f5e;
      }

      .cls-13 {
        fill: #de2228;
      }
    </style>
  </defs>
  <g id="_Слой_1-2" data-name="Слой 1">
    <g>
      <path class="cls-3" d="M21.31,93.06c.16-.95,.6-1.86,.95-2.89h22.98c9.6,28.66,19.21,57.32,28.81,85.98l1.11,.14c9.66-28.7,19.33-57.39,29-86.12h23.39c7.02,41.81,14.03,83.58,21.12,125.77h-23.28c-4.33-25.42-8.67-50.93-13.02-76.44-.41-.05-.83-.11-1.24-.16-8.58,25.5-17.17,51-25.81,76.67h-21.51c-8.56-25.54-17.15-51.19-25.74-76.84l-1.17,.12c-4.42,25.47-8.84,50.95-13.32,76.75H0c0-2,15.51-89.52,21.31-122.98Z"/>
      <path class="cls-7" d="M645.03,0c5.64,2.36,8.85,6.93,11.8,12.07,19.01,33.21,38.2,66.32,57.3,99.47,.72,1.25,1.91,2.33,1.8,4.24h-23.41c-6.72-11.61-13.62-23.52-20.51-35.43-8.16-14.12-16.29-28.26-24.48-42.36-3.62-6.24-6.01-6.17-9.61,.04-14.5,25.06-29.03,50.1-43.56,75.15-.5,.86-1.04,1.69-1.64,2.66h-22.96c-.65-1.72,.61-2.81,1.31-4.02,19.72-34.15,39.51-68.27,59.13-102.48,2.42-4.22,5.8-7.02,9.82-9.34h5Z"/>
      <path class="cls-9" d="M778.3,222.32c3.04,5.39,6.68,10.81,9.29,16.69,3.56,8.02-2.28,16.63-11.06,17.08-1.83,.09-3.66,.04-5.5,.04-85.12,0-170.25,.02-255.37,.02-1.17,0-2.35-.15-3.5,.01-12.29,1.67-19.71-10.84-12.3-21.41,2.75-3.93,4.89-8.28,7.34-12.5h23.2c.16,3-2.16,4.81-3.19,7.16-1.58,3.62-.29,5.39,3.39,5.83,.99,.12,2,.06,2.99,.06,72.3,0,144.59-.02,216.89-.03,1.33,0,2.67,.07,4-.05,4.16-.37,5.23-2.21,3.54-6.04-.98-2.23-2.93-4.01-3.21-6.88h23.48Z"/>
      <path class="cls-8" d="M506.98,156.24h34.95v-32.96h23.52v92.65h-23.19v-37.83h-35.13v37.88h-23.24V123.15h23.08v33.09Z"/>
      <path class="cls-8" d="M459.74,123.46v92.49h-22.71v-53.3c-4.63,5.32-8.4,9.65-12.17,13.98-9.52,10.93-19.53,21.47-28.36,32.94-5.12,6.64-10.83,7.73-18.36,6.19V123.27h22.65v54.27c3.34-3.75,5.85-6.52,8.31-9.33,11.29-12.92,22.92-25.56,33.69-38.9,4.77-5.91,9.9-7.43,16.94-5.86Z"/>
      <path class="cls-8" d="M365.5,216.1h-23.75c-7.71-19.22-15.41-38.44-23.52-58.66-8.17,20.06-15.97,39.24-23.84,58.57h-23.71c13.26-31.13,26.39-61.94,39.57-92.87h15.36c13.2,30.75,26.41,61.55,39.89,92.95Z"/>
      <path class="cls-10" d="M892.55,123.3v21.95h-30.95c0,12.15,0,23.78,0,35.4s0,23.27,0,35.26h-23.4v-70.48h-32.43v-22.13h86.77Z"/>
      <path class="cls-4" d="M370.85,68.34v32.46h11.57v-31.98c2.68-1.06,4.97-.58,7.71-.48v39.36h-46.63v-39.08c2.31-.84,4.74-.39,7.69-.31v32.54h11.42v-32.51h8.24Z"/>
      <path class="cls-12" d="M496.95,75.45c-4.11-.73-7.73-.42-12.02-.27,0,5.36,0,10.61,0,15.87,0,2,0,4-.09,6-.41,9.91-3.14,12.06-13.37,10.47-.86-1.69-.47-3.48-.27-5.23,1.47-1.37,3.76-.19,5.63-2.63v-31.19h27.68v39.02c-2.19,.92-4.64,.31-7.56,.4v-32.43Z"/>
      <path class="cls-12" d="M406.68,85.19c5.66-1.49,5.74-5.91,7.28-9.13,3.33-6.97,5.55-8.4,13.2-7.68,.86,1.53,.55,3.16,.23,5.21-9.59-.45-6.54,10.27-12.33,13.5,6.79,5.49,8.85,13.33,12.82,20.63h-9.01c-4.15-5.22-4.45-13.06-11.71-17.8v17.76h-7.88v-39.04c2.29-.86,4.59-.4,7.4-.32v16.87Z"/>
      <path class="cls-2" d="M295.86,68.5c.7,2.09,.55,4.03,.08,6.47h-11.07v32.42c-2.76,.87-5.19,.51-8.13,.37v-32.73h-11.26c-.9-2.33-.62-4.26-.28-6.53h30.66Z"/>
      <path class="cls-13" d="M654.97,90.33h-24.54c-16.22,41.81-32.33,83.35-48.76,125.71h25.09c3.4-8.64,6.74-17.11,10.07-25.58h51.68c3.29,8.53,6.57,17.01,9.84,25.46h25.04c-16.28-42.22-32.35-83.92-48.42-125.59Zm-29.22,76.44c5.59-14.19,11.05-28.07,16.98-43.14,5.86,14.97,11.27,28.79,16.89,43.14h-33.88Z"/>
      <path class="cls-1" d="M234.85,123.32v8.59c-2.11,0-2.8-1.33-3.79-2.11-16.24-12.82-38.28-12.24-53.67,1.45-16.15,14.37-21.15,41.57-10.97,61.62,14.62,28.8,47.42,32.92,66.18,15.47,.58-.54,1.2-1.22,2.55-.3v7.88h22.77V123.32h-23.07Zm-24.81,73.78c-14.68-.11-25.24-11.73-25.18-27.72,.06-16.08,10.62-27.36,25.52-27.27,14.94,.1,25.53,11.47,25.49,27.4-.03,16.25-10.75,27.7-25.84,27.59Z"/>
      <path class="cls-1" d="M776.2,166.54c2.48-1.89,4.8-3.46,6.89-5.29,2.29-2,3.82-4.6,4.79-7.48,4.48-13.36-3.93-27.39-18.42-29.68-16.35-2.59-32.88-.45-49.69-1.23v93.41c7.39,0,14.52,.08,21.66-.02,10.64-.14,21.31,.66,31.89-1.2,12.6-2.22,20.54-11.57,20.62-24.37,.08-12.25-6.44-19.77-17.73-24.12Zm-32.98-27.11c4.11,0,8.09-.31,12.01,.08,5.47,.54,8.9,4.74,8.97,10.24,.07,4.92-2.97,8.44-8.43,9.55-4.09,.83-8.21,.56-12.55,.25v-20.12Zm13.21,58.65c-4.28,.15-8.57,.03-13.14,.03v-21c4.86,0,9.51-.37,14.07,.09,6.17,.63,10.23,5.7,9.99,11.62-.22,5.45-4.33,9.03-10.92,9.26Z"/>
      <path class="cls-8" d="M952.06,120.7c-26.92,.02-48.67,22-48.61,49.12,.07,27.2,21.7,48.85,48.85,48.88,27.6,.03,49.66-21.94,49.57-49.38-.09-26.95-22.31-48.64-49.82-48.62Zm.18,76.17c-14.87-.06-25.29-11.39-25.26-27.46,.04-15.6,10.59-26.66,25.46-26.68,15.19-.02,25.63,11,25.56,27.01-.06,15.68-10.99,27.18-25.77,27.12Z"/>
      <path class="cls-5" d="M256.59,86.53c3.92-3.14,5.65-6.94,3.94-11.59-1.71-4.65-5.66-6.43-10.28-6.55-6.61-.17-13.22-.04-19.95-.04v39.47c7.03,0,13.67,.16,20.31-.05,6.75-.21,10.28-2.73,11.95-7.92,1.67-5.19,.16-8.71-5.98-13.32Zm-18.59-11.52c4,0,7.45-.06,10.9,.02,2.49,.06,4.04,1.33,4.26,3.92,.25,2.88-1.38,4.54-3.95,4.77-3.45,.31-6.94,.08-10.64,.08-1.2-2.62-.39-5.41-.57-8.78Zm12.29,25.89c-3.91,.22-7.85,.06-12.2,.06v-9.77c4.28-1.1,8.51-.6,12.69-.1,2.61,.32,4.03,2.25,4.01,4.88-.02,2.87-1.63,4.78-4.5,4.94Z"/>
      <path class="cls-5" d="M317.97,67.55c-11.98-.16-19.33,7.51-19.53,20.38-.2,12.59,7.27,20.61,19.25,20.67,11.7,.05,19.18-7.75,19.29-20.12,.11-12.78-7.15-20.76-19.02-20.92Zm-1.63,34.05c-5.23-.71-8.78-4.74-9.36-10.64-.84-8.49,1.64-14.11,7.01-15.89,8.24-2.73,14.68,2.83,14.74,12.73,.05,9.03-5.11,14.78-12.39,13.79Z"/>
      <path class="cls-11" d="M449.93,67.55c-11.92,0-19.05,7.78-19.03,20.77,.02,12.53,7.21,20.18,19.03,20.27,11.96,.09,19.32-7.71,19.35-20.51,.03-12.72-7.33-20.54-19.35-20.53Zm9.91,27.54c-1.59,3.84-4.5,6.13-8.65,6.52-4.56,.42-8.09-1.42-10.32-5.45-2.95-5.34-2.31-14.46,1.36-18.38,3.32-3.55,7.51-4.03,11.91-2.62,4.48,1.44,6.87,6.04,6.88,13.04,.11,2.1-.21,4.57-1.18,6.89Z"/>
      <path class="cls-5" d="M209.79,68.3h-8.54c-5.1,13.12-10.13,26.08-15.24,39.23,3.98,0,5.98,.08,8.39,.08,1.08-2.77,2.15-5.52,3.3-8.44h15.72c1.58,3.82,2.58,4.82,3.96,8.53h8.22c-5.4-13.45-10.62-26.46-15.81-39.41Zm-9.53,23.58c1.69-4.65,3.25-8.96,5.18-14.28,2.01,5.29,3.66,9.63,5.43,14.28h-10.61Z"/>
      <path class="cls-6" d="M532.81,68.33c-3.18-.12-5.81-.48-8.68,.29-5.01,12.91-10.04,25.88-15.15,39.05,3.11,.31,5.72,.55,8.44-.1,1.1-2.79,2.18-5.53,3.32-8.41h15.84c1.21,2.99,2.33,5.75,3.45,8.52h8.59c-5.41-13.47-10.64-26.48-15.81-39.36Zm-9.17,23.61c1.04-4.76,2.8-9.06,4.94-14.09,1.89,5.02,3.54,9.4,5.3,14.09h-10.24Z"/>
    </g>
  </g>
</svg>