<?xml version="1.0" encoding="UTF-8"?>
<svg id="_Слой_2" data-name="Слой 2" xmlns="http://www.w3.org/2000/svg" viewBox="0 0 291.74 256.33">
  <defs>
    <style>
      .cls-1 {
        fill: #dd232a;
      }

      .cls-2 {
        fill: #dd2329;
      }

      .cls-3 {
        fill: #de2228;
      }
    </style>
  </defs>
  <g id="_Слой_1-2" data-name="Слой 1">
    <g>
      <path class="cls-1" d="M148.12,0c5.64,2.36,8.85,6.93,11.8,12.07,19.01,33.21,38.2,66.32,57.3,99.47,.72,1.25,1.91,2.33,1.8,4.24h-23.41c-6.72-11.61-13.62-23.52-20.51-35.43-8.16-14.12-16.29-28.26-24.48-42.36-3.62-6.24-6.01-6.17-9.61,.04-14.5,25.06-29.03,50.1-43.56,75.15-.5,.86-1.04,1.69-1.64,2.66h-22.96c-.65-1.72,.61-2.81,1.31-4.02,19.72-34.15,39.51-68.27,59.13-102.48,2.42-4.22,5.8-7.02,9.82-9.34h5Z"/>
      <path class="cls-2" d="M281.4,222.32c3.04,5.39,6.68,10.81,9.29,16.69,3.56,8.02-2.28,16.63-11.06,17.08-1.83,.09-3.66,.04-5.5,.04-85.12,0-170.25,.02-255.37,.02-1.17,0-2.35-.15-3.5,.01-12.29,1.67-19.71-10.84-12.3-21.41,2.75-3.93,4.89-8.28,7.34-12.5h23.2c.16,3-2.16,4.81-3.19,7.16-1.58,3.62-.29,5.39,3.39,5.83,.99,.12,2,.06,2.99,.06,72.3,0,144.59-.02,216.89-.03,1.33,0,2.67,.07,4-.05,4.16-.37,5.23-2.21,3.54-6.04-.98-2.23-2.93-4.01-3.21-6.88h23.48Z"/>
      <path class="cls-3" d="M158.06,90.33h-24.54c-16.22,41.81-32.33,83.35-48.76,125.71h25.09c3.4-8.64,6.74-17.11,10.07-25.58h51.68c3.29,8.53,6.57,17.01,9.84,25.46h25.04c-16.28-42.22-32.35-83.92-48.42-125.59Zm-29.22,76.44c5.59-14.19,11.05-28.07,16.98-43.14,5.86,14.97,11.27,28.79,16.89,43.14h-33.88Z"/>
    </g>
  </g>
</svg>